# xmcd
#
# Track frame offsets:
#	150
#	15402
#	25285
#	33768
#	45898
#	57617
#	68467
#	79661
#	91136
#	103787
#	117562
#	128220
#
# Disc length: 1839
#
# Revision: 3
# Processed by: cddbd v1.5.1PL0 Copyright (c) Steve Scherf et al.
# Submitted via: Audio-CD-Archiv 2.10.438
# Normalized: r1:DSETVAR1,TDELIM( - ),TSWAP
#
DISCID=8d072d0c
DTITLE=Various Artist - The Country And The West CD2
DYEAR=1900
DGENRE=country
TTITLE0=Jeannie C. Riley - Harper Valley P.T.A.
TTITLE1=Dave Dudley - Cowboy Boots
TTITLE2=frankie Miller - Family Man
TTITLE3=Del Reeves - Girl On The Billboard
TTITLE4=Henson Cargill - Skip A Rope
TTITLE5=Johnny Russel - King Of The Road
TTITLE6=Billy Walker - Charlie's Shoes
TTITLE7=Porter Wagoner - Misery Loves Company
TTITLE8=Claude King - Wolverton Mountain
TTITLE9=Jimmy Dean - Big Bad John
TTITLE10=Faron Young - Hello Walls
TTITLE11=Dave Dudley - Truck Driven' Son-Of-A-Gun
EXTD=
EXTT0=
EXTT1=
EXTT2=
EXTT3=
EXTT4=
EXTT5=
EXTT6=
EXTT7=
EXTT8=
EXTT9=
EXTT10=
EXTT11=
PLAYORDER=
